<svg fill="none" xmlns="http://www.w3.org/2000/svg" viewBox="61 67 168.38 166.32">
<path d="M144.929 219.095C186.966 219.095 221.044 185.795 221.044 144.717C221.044 103.639 186.966 70.3384 144.929 70.3384C102.892 70.3384 68.8137 103.639 68.8137 144.717C68.8137 185.795 102.892 219.095 144.929 219.095Z" fill="#E83D84"/>
<path d="M145.185 107.493C149.885 107.493 153.696 103.644 153.696 98.8958C153.696 94.1478 149.885 90.2988 145.185 90.2988C140.484 90.2988 136.674 94.1478 136.674 98.8958C136.674 103.644 140.484 107.493 145.185 107.493Z" fill="#FCDA06"/>
<path fill-rule="evenodd" clip-rule="evenodd" d="M145.185 98.8962L111.207 221.472L97.0413 219.41L89.3308 206.555L145.185 98.8962Z" fill="#FCDA06"/>
<path fill-rule="evenodd" clip-rule="evenodd" d="M145.185 98.8962L79.5714 194.813L66.8233 185.771L68.2406 169.749L145.185 98.8962Z" fill="#FCDA06"/>
<path fill-rule="evenodd" clip-rule="evenodd" d="M145.185 98.8962L161.384 226.946L145.185 233.295L128.985 226.946L145.185 98.8962Z" fill="#FCDA06"/>
<path fill-rule="evenodd" clip-rule="evenodd" d="M145.185 98.8962L65.7218 155.233L61 142.534L67.6091 128.574L145.185 98.8962Z" fill="#FCDA06"/>
<path fill-rule="evenodd" clip-rule="evenodd" d="M145.185 98.8958L72.0151 116.513L74.2181 103.658L84.6016 96.8337L145.185 98.8958Z" fill="#FCDA06"/>
<path fill-rule="evenodd" clip-rule="evenodd" d="M145.185 98.895L92.4665 88.2656L99.0755 79.6983L110.406 76.8425L145.185 98.895Z" fill="#FCDA06"/>
<path fill-rule="evenodd" clip-rule="evenodd" d="M145.185 98.8956L119.85 72.4L129.294 67L139.993 68.2684L145.185 98.8956Z" fill="#FCDA06"/>
<path fill-rule="evenodd" clip-rule="evenodd" d="M145.185 98.8962L179.17 221.472L193.328 219.41L201.038 206.555L145.185 98.8962Z" fill="#FCDA06"/>
<path fill-rule="evenodd" clip-rule="evenodd" d="M145.185 98.8962L210.798 194.813L223.546 185.771L222.129 169.749L145.185 98.8962Z" fill="#FCDA06"/>
<path fill-rule="evenodd" clip-rule="evenodd" d="M145.185 98.8962L224.647 155.233L229.369 142.534L222.76 128.574L145.185 98.8962Z" fill="#FCDA06"/>
<path fill-rule="evenodd" clip-rule="evenodd" d="M145.185 98.8958L218.354 116.513L216.151 103.658L205.768 96.8337L145.185 98.8958Z" fill="#FCDA06"/>
<path fill-rule="evenodd" clip-rule="evenodd" d="M145.185 98.895L197.903 88.2656L191.294 79.6983L179.963 76.8425L145.185 98.895Z" fill="#FCDA06"/>
<path fill-rule="evenodd" clip-rule="evenodd" d="M145.185 98.8956L170.519 72.4L161.083 67L150.384 68.2684L145.185 98.8956Z" fill="#FCDA06"/>
<path d="M177.336 177.952C163.309 231.547 121.605 218.293 111.441 178.979C101.562 140.73 128.473 122.296 128.473 122.296C128.473 122.296 134.4 124.66 141.305 126.625C145.337 127.778 189.286 132.285 177.336 177.952ZM190.467 153.778C186.166 123.958 162.332 120.508 156.936 118.816C146.838 115.646 129.836 116.695 128.152 101.823C125.935 82.2288 140.663 91.8632 150.477 92.6316C160.29 93.4 161.158 82.0515 161.158 82.0515C161.158 82.0515 158.817 88.0509 138.979 83.1672C119.14 78.2908 116.778 94.7521 116.618 99.0152C116.144 111.346 124.011 117.235 124.842 120.582C125.199 122.037 97.5228 127.482 99.8778 164.284C102.24 201.085 124.587 216.15 141.917 217.029C159.24 217.909 197.459 203.782 190.467 153.778Z" fill="#F7F7F7"/>
</svg>