<?xml version="1.0" encoding="UTF-8"?>
<svg xmlns="http://www.w3.org/2000/svg" xmlns:xlink="http://www.w3.org/1999/xlink" viewBox="0 0 541.93 498.91">
  <defs>
    <style>
      .cls-1 {
        fill: none;
      }

      .cls-2 {
        clip-path: url(#clippath-1);
      }

      .cls-3 {
        fill: #fff5c2;
      }

      .cls-4 {
        fill: #fab612;
        fill-rule: evenodd;
      }

      .cls-5 {
        clip-path: url(#clippath);
      }

      .cls-6 {
        fill: #6d2c87;
      }
    </style>
    <clipPath id="clippath">
      <polygon class="cls-1" points="269.47 51.99 269.47 51.99 472.12 51.99 472.12 418.85 269.47 418.85 269.47 51.99"/>
    </clipPath>
    <clipPath id="clippath-1">
      <polygon class="cls-1" points="268.16 51.99 268.16 51.99 65.51 51.99 65.51 418.85 268.16 418.85 268.16 51.99"/>
    </clipPath>
  </defs>
  <g id="Layer_2" data-name="Layer 2">
    <ellipse id="Background" class="cls-3" cx="268.81" cy="241.37" rx="232.24" ry="231.84"/>
    <path class="cls-4" d="M509.62,264.71l14.31-38.1-20.03-41.88-210.99-115.52c.39-1.02.71-2.07.97-3.15l196.67,82.48-6.68-38.57-31.47-20.47-157.85-30.29c-.05-1.42-.19-2.82-.46-4.18l134.47,8.76-20.03-25.7-34.34-8.57-83.57,16.85c-1.11-1.77-2.42-3.39-3.92-4.84l58.87-25.35L316.99,0l-32.42,3.81-11.4,30.88c-1.42-.24-2.87-.4-4.35-.4s-2.93.15-4.35.39l-11.38-30.88-32.42-3.81-28.62,16.2,58.87,25.35c-1.5,1.44-2.81,3.07-3.92,4.84l-83.57-16.85-34.34,8.57-20.03,25.7,134.47-8.76c-.27,1.36-.41,2.76-.46,4.18l-157.85,30.29-31.47,20.47-6.68,38.57,196.67-82.48c.26,1.08.58,2.13.97,3.15L33.72,184.73l-20.03,41.88,14.31,38.1L247.71,74.89c.63.9,1.32,1.74,2.06,2.55L35.64,308.26l-4.29,48.07,38.63,27.13L254.16,81.3c.86.6,1.76,1.14,2.69,1.63L99.55,418.68l23.37,38.57,42.93,6.19,96.02-378.53c1.2.33,2.42.59,3.68.75l-45.83,394.21,49.09,19.05,49.09-19.05-45.83-394.21c1.26-.16,2.49-.41,3.68-.75l96.04,378.53,42.91-6.19,23.37-38.57L280.78,82.92c.93-.49,1.83-1.03,2.69-1.63l184.18,302.16,38.63-27.13-4.29-48.07-214.14-230.82c.74-.81,1.43-1.65,2.06-2.55l219.71,189.82Z"/>
  </g>
  <g id="Layer_1" data-name="Layer 1">
    <g>
      <g id="_Mirror_Repeat_" data-name="&amp;lt;Mirror Repeat&amp;gt;">
        <g class="cls-5">
          <path id="Delta" class="cls-6" d="M396.59,269.63c47.67,156.42-63.59,154.08-96.67,76.38-33.97-79.1-6.15-153.31,7.51-169.41,12.36-14.57,59.54-25.49,95.36-30.32,46.44-6.26,88.65,9.63-6.19,123.35ZM470.34,149.98c-5.88-29.83-45.99-28.89-92.44-19.49-42.43,8.59-80.49,29.89-85.91,14.96-6.18-57.82,34.07-45.32,53.66-46.67,22.45-1.55,29.27-46.79,29.27-46.79,0,0-10.21,28.55-51.22,27.63-41-.91-56.38,43.83-53.98,67.01,2.41,23.19,9.88,33.65,13.33,40.53,1.49,2.99-25.49,51.02-5.1,133.1,24.84,78.9,65.65,115.17,111.7,91.39,50.65-26.15,40.22-105.6,46.18-135.07,7.06-34.92,44.86-74.15,34.51-126.6Z"/>
        </g>
      </g>
      <g id="_Mirror_Repeat_-2" data-name="&amp;lt;Mirror Repeat&amp;gt;">
        <g class="cls-2">
          <path id="Delta-2" data-name="Delta" class="cls-6" d="M141.03,269.63c-47.67,156.42,63.59,154.08,96.67,76.38,33.97-79.1,6.15-153.31-7.51-169.41-12.36-14.57-59.54-25.49-95.36-30.32-46.44-6.26-88.65,9.63,6.19,123.35ZM67.29,149.98c5.88-29.83,45.99-28.89,92.44-19.49,42.43,8.59,80.49,29.89,85.91,14.96,6.18-57.82-34.07-45.32-53.66-46.67-22.45-1.55-29.27-46.79-29.27-46.79,0,0,10.21,28.55,51.22,27.63,41-.91,56.38,43.83,53.98,67.01-2.41,23.19-9.88,33.65-13.33,40.53-1.49,2.99,25.49,51.02,5.1,133.1-24.84,78.9-65.65,115.17-111.7,91.39-50.65-26.15-40.22-105.6-46.18-135.07-7.06-34.92-44.86-74.15-34.51-126.6Z"/>
        </g>
      </g>
    </g>
  </g>
</svg>