<svg width="51" height="51" viewBox="0 0 51 51" fill="none" xmlns="http://www.w3.org/2000/svg">
<path fill-rule="evenodd" clip-rule="evenodd" d="M43.2268 0C46.9965 0 50.0521 3.0558 50.0521 6.82529V43.2268C50.0521 46.9965 46.9965 50.0521 43.2268 50.0521H6.82529C3.0558 50.0521 0 46.9965 0 43.2268V6.82529C0 3.0558 3.0558 0 6.82529 0H43.2268ZM43.2268 4.55019C44.4834 4.55019 45.5019 5.5688 45.5019 6.82529V43.2268C45.5019 44.4834 44.4834 45.5019 43.2268 45.5019H31.8514V29.576H36.5749C37.5541 29.576 38.4234 28.9495 38.7333 28.0203L39.7412 24.9967C40.1095 23.8917 39.2871 22.7507 38.1224 22.7507H31.8514V18.2006C31.8514 17.063 32.9889 15.9255 34.1265 15.9255H38.6767C39.9332 15.9255 40.9517 14.9069 40.9517 13.6504V12.0897C40.9517 11.3548 40.4824 10.6959 39.7717 10.5084C36.7895 9.72138 34.1265 9.72138 34.1265 9.72138C28.4387 9.72138 25.0261 13.6504 25.0261 17.063V22.7507H20.4759C19.2194 22.7507 18.2008 23.7693 18.2008 25.0258V27.3009C18.2008 28.5575 19.2194 29.576 20.4759 29.576H25.0261V45.5019H6.82529C5.5688 45.5019 4.55019 44.4834 4.55019 43.2268V6.82529C4.55019 5.5688 5.5688 4.55019 6.82529 4.55019H43.2268Z" fill="#FFF9D7"/>
</svg>
