<svg width="51" height="50" viewBox="0 0 51 50" fill="none" xmlns="http://www.w3.org/2000/svg">
<path d="M38.3208 9.2041C36.6456 9.2041 35.3892 10.4592 35.3892 12.1327C35.3892 13.8062 36.6456 15.0613 38.3208 15.0613C39.996 15.0613 41.2525 13.8062 41.2525 12.1327C41.2525 10.4592 39.996 9.2041 38.3208 9.2041Z" fill="#FFF9D7"/>
<path d="M25.1285 12.9697C18.2182 12.9697 12.7737 18.6177 12.7737 25.3116C12.7737 32.0056 18.4276 37.6536 25.1285 37.6536C31.8294 37.6536 37.4833 32.0056 37.4833 25.3116C37.4833 18.6177 32.0388 12.9697 25.1285 12.9697ZM25.1285 33.2607C20.731 33.2607 17.1711 29.7045 17.1711 25.3116C17.1711 20.9188 20.731 17.3626 25.1285 17.3626C29.5259 17.3626 33.0858 20.9188 33.0858 25.3116C33.0858 29.7045 29.5259 33.2607 25.1285 33.2607Z" fill="#FFF9D7"/>
<path d="M35.1797 0H15.2864C6.7009 0 0 6.69392 0 15.0613V34.9339C0 43.3013 6.7009 49.9952 15.077 49.9952H34.9703C43.3465 49.9952 50.0474 43.3013 50.0474 34.9339V15.0613C50.2568 6.69392 43.5559 0 35.1797 0ZM45.4405 35.1431C45.4405 40.7911 40.8336 45.6023 34.9703 45.6023H15.077C9.42314 45.6023 4.60687 41.0003 4.60687 35.1431V15.2705C4.60687 9.62251 9.21374 4.81126 15.077 4.81126H34.9703C40.6242 4.81126 45.4405 9.41333 45.4405 15.2705V35.1431Z" fill="#FFF9D7"/>
</svg>
