<svg width="51" height="50" viewBox="0 0 51 50" fill="none" xmlns="http://www.w3.org/2000/svg">
<path d="M46.1418 0H3.91032C1.74987 0 0 1.74805 0 3.90625V46.0938C0 48.252 1.74987 50 3.91032 50H46.1418C48.3023 50 50.0521 48.252 50.0521 46.0938V3.90625C50.0521 1.74805 48.3023 0 46.1418 0ZM18.0266 35.459H13.1485V19.8633H18.0266V35.459ZM15.4556 17.9102H15.4165C13.647 17.9102 12.5033 16.7188 12.5033 15.2051C12.5033 13.6621 13.6861 12.5 15.4849 12.5C17.2836 12.5 18.3883 13.6621 18.4274 15.2051C18.4372 16.709 17.2934 17.9102 15.4556 17.9102ZM37.5391 35.459H32.006V27.3926C32.006 25.2832 31.1457 23.8379 29.2394 23.8379C27.7828 23.8379 26.9715 24.8145 26.6 25.752C26.4631 26.084 26.4827 26.5527 26.4827 27.0312V35.459H20.9984C20.9984 35.459 21.0669 21.1621 20.9984 19.8633H26.4827V22.3145C26.8053 21.2402 28.5551 19.7168 31.351 19.7168C34.8214 19.7168 37.5391 21.9629 37.5391 26.7871V35.459Z" fill="#FFF9D7"/>
</svg>
